HIERARCHY
ROOT hip
{
	OFFSET 0.000000 0.000000 0.000000 
	CHANNELS 6 Xposition Yposition Zposition Xrotation Zrotation Yrotation
	JOINT abdomen
	{
		OFFSET 0.000000 3.402643 0.000000 
		CHANNELS 3 Xrotation Zrotation Yrotation
		JOINT chest
		{
			OFFSET 0.000000 8.438565 -0.680529 
			CHANNELS 3 Xrotation Zrotation Yrotation
			JOINT neck
			{
				OFFSET 0.000000 10.207942 -0.272212 
				CHANNELS 3 Xrotation Zrotation Yrotation
				JOINT head
				{
					OFFSET 0.000000 3.130431 0.000000 
					CHANNELS 3 Xrotation Zrotation Yrotation
					End Site
					{
						OFFSET 0.000000 3.130435 0.000000 
					}
				}
			}
			JOINT lCollar
			{
				OFFSET 3.470700 6.669187 -0.816635 
				CHANNELS 3 Yrotation Zrotation Xrotation
				JOINT lShldr
				{
					OFFSET 3.198488 0.000000 0.000000 
					CHANNELS 3 Zrotation Yrotation Xrotation
					JOINT lForeArm
					{
						OFFSET 10.139888 0.000000 0.000000 
						CHANNELS 3 Yrotation Zrotation Xrotation
						JOINT lHand
						{
							OFFSET 8.370511 0.000000 0.000000 
							CHANNELS 3 Zrotation Yrotation Xrotation
							End Site
							{
								OFFSET 4.083176 0.000000 0.000000 
							}
						}
					}
				}
			}
			JOINT rCollar
			{
				OFFSET -3.470700 6.669187 -0.816635 
				CHANNELS 3 Yrotation Zrotation Xrotation
				JOINT rShldr
				{
					OFFSET -3.198488 0.000000 0.000000 
					CHANNELS 3 Zrotation Yrotation Xrotation
					JOINT rForeArm
					{
						OFFSET -10.139888 0.000000 0.000000 
						CHANNELS 3 Yrotation Zrotation Xrotation
						JOINT rHand
						{
							OFFSET -8.370511 0.000000 0.000000 
							CHANNELS 3 Zrotation Yrotation Xrotation
							End Site
							{
								OFFSET -4.083176 0.000000 0.000000 
							}
						}
					}
				}
			}
		}
	}
	JOINT lThigh
	{
		OFFSET 5.308129 -1.633274 1.361059 
		CHANNELS 3 Xrotation Zrotation Yrotation
		JOINT lShin
		{
			OFFSET -2.041588 -20.007561 0.000000 
			CHANNELS 3 Xrotation Zrotation Yrotation
			JOINT lFoot
			{
				OFFSET 0.000000 -19.190928 -1.224953 
				CHANNELS 3 Xrotation Yrotation Zrotation
				End Site
				{
					OFFSET 0.000000 -2.449906 4.627600 
				}
			}
		}
	}
	JOINT rThigh
	{
		OFFSET -5.308129 -1.633274 1.361059 
		CHANNELS 3 Xrotation Zrotation Yrotation
		JOINT rShin
		{
			OFFSET 2.041588 -20.007561 0.000000 
			CHANNELS 3 Xrotation Zrotation Yrotation
			JOINT rFoot
			{
				OFFSET 0.000000 -19.190928 -1.224953 
				CHANNELS 3 Xrotation Yrotation Zrotation
				End Site
				{
					OFFSET 0.000000 -2.449906 4.627600 
				}
			}
		}
	}
}
MOTION
Frames: 11
Frame Time: 0.016667
-224.229050 6.550702 -259.488312 94.841438 143.734756 5.445111 13.021388 -7.247613 5.128472 -20.839844 0.000000 0.000000 -29.242182 0.671641 -6.277734 8.603792 -1.684224 0.126603 -4.754609 -0.109183 -0.002653 68.789558 -0.058094 -50.336391 -34.138317 -2.663959 -8.319973 -169.685349 165.381668 180.832458 4.754609 0.109183 -0.002672 -46.003590 10.696828 -62.542717 62.958347 -16.835361 7.488347 -171.559250 179.455139 -171.877869 -1.760691 29.750658 31.316076 21.404692 -13.045266 13.410645 39.568069 -4.972208 5.949030 1.775996 -25.863148 -4.250819 7.690874 -0.781311 13.052570 42.840878 1.693643 12.518069 
-224.092667 6.904660 -259.238007 94.762917 143.558136 5.476559 12.902361 -7.023379 4.812859 -20.839844 0.000000 0.000000 -29.441263 0.859421 -5.837861 8.603792 -1.684224 0.126603 -4.754609 -0.109183 -0.002653 68.877945 -0.112906 -49.778290 -34.309055 -3.229580 -7.710696 -169.797806 164.565369 181.090210 4.754609 0.109183 -0.002672 -44.722363 10.231948 -61.362221 64.586464 -16.659016 7.790176 -171.116241 181.339249 -171.186951 -0.078735 29.140503 31.859018 19.403654 -12.684192 13.191028 36.594448 -6.736207 6.576919 2.772290 -25.309320 -5.218329 6.626190 -1.318132 11.430787 41.300381 1.278349 12.541180 
-223.957809 7.161084 -258.994415 94.087685 143.280899 4.865423 11.888372 -6.770008 5.980920 -20.839844 0.000000 0.000000 -29.382248 0.449629 -6.519579 8.603792 -1.684224 0.126603 -4.754609 -0.109183 -0.002653 68.251335 -0.688064 -49.838284 -34.610157 -3.408714 -7.574117 -169.790024 163.999908 181.173172 4.754609 0.109183 -0.002672 -44.169437 10.718981 -61.377705 65.367004 -16.718256 8.341973 -170.585815 183.247375 -171.458618 0.475668 28.326574 31.055887 16.833782 -11.607374 12.398892 35.085896 -8.027823 6.411920 3.104792 -24.873354 -6.075548 4.800449 -1.444582 9.498301 40.834702 0.709140 12.830694 
-223.814285 7.244336 -258.760956 93.617851 143.159943 4.001347 11.073962 -6.421363 7.132673 -20.839844 0.000000 0.000000 -29.290676 -0.031426 -6.879407 8.603792 -1.684224 0.126603 -4.754609 -0.109183 -0.002653 67.605057 -1.067348 -49.885178 -34.315750 -3.390449 -7.556212 -169.983627 163.823303 181.145828 4.754609 0.109183 -0.002672 -44.704643 11.902061 -62.423126 65.053864 -16.775124 8.726665 -170.353958 184.600403 -172.093994 0.162826 27.602879 29.102316 15.645327 -10.457789 11.582505 34.257549 -7.262653 5.107244 2.879659 -24.675762 -6.719586 3.050692 -1.228877 7.806501 41.774448 0.215886 12.870570 
-223.692749 7.174359 -258.565338 93.861877 143.210739 3.446093 11.089443 -5.982467 7.305678 -20.839844 0.000000 0.000000 -29.424133 -0.239759 -6.434780 8.603792 -1.684224 0.126603 -4.754609 -0.109183 -0.002653 67.537788 -0.943346 -49.605129 -33.448639 -3.407774 -7.223474 -170.310501 163.783722 180.931107 4.754609 0.109183 -0.002672 -45.621864 12.818014 -63.493301 64.245331 -16.730320 8.807163 -170.468231 185.095871 -172.552460 -0.111791 27.179869 27.501547 16.044928 -9.880470 11.359593 33.601528 -5.349849 3.998298 2.899019 -24.516106 -7.195395 1.400460 -1.051495 6.501254 43.839794 -0.184775 12.780279 
-223.612549 7.010907 -258.443756 94.698822 143.462204 3.304872 11.567568 -6.109200 7.165042 -20.839844 0.000000 0.000000 -29.674795 -0.347261 -6.063998 8.603792 -1.684224 0.126603 -4.754609 -0.109183 -0.002653 68.149742 -0.888012 -49.471764 -32.484833 -3.645636 -6.614934 -170.703537 163.643158 180.835312 4.754609 0.109183 -0.002672 -46.281746 13.494066 -64.301735 63.057106 -16.662540 8.815719 -170.395401 184.756668 -173.145569 0.185233 26.903872 27.059441 16.971842 -9.909043 12.007105 33.363068 -3.581345 3.656538 2.927666 -24.447544 -7.462374 1.306204 -1.298403 5.660153 45.158798 -0.506694 13.010039 
-223.602844 6.829068 -258.410553 95.559944 143.685486 3.439854 12.008522 -6.692398 7.470449 -20.839844 0.000000 0.000000 -30.149530 -0.650603 -6.265471 8.603792 -1.684224 0.126603 -4.754609 -0.109183 -0.002653 69.205338 -1.202552 -49.836784 -31.584747 -3.962023 -6.160594 -171.081497 163.638306 181.196701 4.754609 0.109183 -0.002672 -46.862816 14.012261 -65.044991 61.146389 -16.540850 8.724483 -170.044510 183.824814 -173.949951 0.738877 26.780914 27.440271 17.722252 -10.229972 13.099836 33.686520 -2.299254 3.712433 2.927524 -24.376194 -7.654651 2.505751 -1.776175 5.054691 44.962082 -0.811669 13.580455 
-223.672302 6.712094 -258.444244 95.911377 143.555115 3.680101 12.336818 -6.793042 7.921767 -20.839844 0.000000 0.000000 -31.274677 -1.157992 -6.609427 8.603792 -1.684224 0.126603 -4.754609 -0.109183 -0.002653 70.085640 -1.493979 -50.346592 -30.837177 -4.094440 -6.134924 -171.217133 163.968964 181.749954 4.754609 0.109183 -0.002672 -47.566040 13.931082 -65.382385 59.250790 -16.298122 8.366426 -169.914627 182.959961 -174.282867 0.915530 27.047110 28.051392 18.209679 -10.571107 13.938334 34.248070 -1.607249 3.854205 3.563963 -24.042875 -7.894978 2.613984 -2.059956 4.322986 44.523266 -1.151389 14.115067 
-223.783661 6.701367 -258.511200 95.617645 143.039932 3.885173 12.235113 -5.938278 7.985620 -20.839844 0.000000 0.000000 -32.610302 -1.483384 -6.611601 8.603792 -1.684224 0.126603 -4.754609 -0.109183 -0.002653 70.253754 -1.591405 -50.563938 -30.643503 -4.051813 -6.308123 -170.928558 164.350220 181.990662 4.754609 0.109183 -0.002672 -47.827328 13.712710 -65.313797 58.919922 -16.146721 8.094059 -169.994339 182.886536 -173.935852 0.504278 27.543072 28.451744 18.330561 -10.701846 14.310200 34.621052 -1.352293 3.926061 5.058317 -23.330029 -8.122089 0.106369 -1.903950 3.391351 45.419910 -1.446543 14.247618 
-223.866379 6.764203 -258.588287 94.911957 142.499939 3.894948 11.460889 -4.850129 7.682697 -20.839844 0.000000 0.000000 -33.173107 -1.439636 -6.272777 8.603792 -1.684224 0.126603 -4.754609 -0.109183 -0.002653 69.866806 -1.724915 -50.509426 -31.055580 -4.072054 -6.338676 -170.408295 164.497726 181.959976 4.754609 0.109183 -0.002672 -47.496696 14.335578 -65.530807 60.012932 -16.306452 8.256969 -169.817215 183.466385 -173.665771 -0.264053 27.890102 28.309151 18.066519 -10.545111 14.349483 34.781101 -1.162102 3.712812 7.236009 -22.704847 -8.455060 -4.906496 -1.230124 2.412600 48.135395 -1.555523 13.820873 
-223.885788 6.831616 -258.654694 94.164703 142.265396 3.741444 10.435879 -4.378163 7.235687 -20.839844 0.000000 0.000000 -32.987377 -1.237031 -5.755103 8.603792 -1.684224 0.126603 -4.754609 -0.109183 -0.002653 69.490990 -1.870272 -50.338066 -31.575603 -4.210499 -6.257765 -170.014923 164.424255 182.009460 4.754609 0.109183 -0.002672 -47.083706 15.568576 -66.205902 61.034592 -16.591475 8.620272 -169.355621 184.004181 -173.812286 -1.016392 27.821308 27.710629 17.530212 -10.213499 14.215785 34.969067 -0.959343 3.434503 6.472681 -22.477222 -7.992297 -4.903047 -1.211943 2.470374 48.744671 -1.651603 13.744409 
